<svg xmlns="http://www.w3.org/2000/svg" width="1600" height="900">
<defs><linearGradient id="g" x1="0" y1="0" x2="0" y2="1">
<stop offset="0" stop-color="#0b1116"/><stop offset="1" stop-color="#0b1116"/></linearGradient></defs>
<rect width="100%" height="100%" fill="url(#g)"/>
<g fill="#0e2a33" font-family="monospace" font-size="14" opacity=".5">
<text x="64" y="48">01</text>
<text x="96" y="48">01</text>
<text x="128" y="48">01</text>
<text x="160" y="48">01</text>
<text x="192" y="48">01</text>
<text x="224" y="48">01</text>
<text x="256" y="48">01</text>
<text x="288" y="48">01</text>
<text x="320" y="48">01</text>
<text x="352" y="48">01</text>
<text x="384" y="48">01</text>
<text x="416" y="48">01</text>
<text x="448" y="48">01</text>
<text x="480" y="48">01</text>
<text x="512" y="48">01</text>
<text x="544" y="48">01</text>
<text x="576" y="48">01</text>
<text x="608" y="48">01</text>
<text x="640" y="48">01</text>
<text x="672" y="48">01</text>
<text x="704" y="48">01</text>
<text x="736" y="48">01</text>
<text x="768" y="48">01</text>
<text x="800" y="48">01</text>
<text x="832" y="48">01</text>
<text x="864" y="48">01</text>
<text x="896" y="48">01</text>
<text x="928" y="48">01</text>
<text x="960" y="48">01</text>
<text x="992" y="48">01</text>
<text x="1024" y="48">01</text>
<text x="1056" y="48">01</text>
<text x="1088" y="48">01</text>
<text x="1120" y="48">01</text>
<text x="1152" y="48">01</text>
<text x="1184" y="48">01</text>
<text x="1216" y="48">01</text>
<text x="1248" y="48">01</text>
<text x="1280" y="48">01</text>
<text x="1312" y="48">01</text>
<text x="1344" y="48">01</text>
<text x="1376" y="48">01</text>
<text x="1408" y="48">01</text>
<text x="1440" y="48">01</text>
<text x="1472" y="48">01</text>
<text x="1504" y="48">01</text>
<text x="64" y="72">01</text>
<text x="96" y="72">01</text>
<text x="128" y="72">01</text>
<text x="160" y="72">01</text>
<text x="192" y="72">01</text>
<text x="224" y="72">01</text>
<text x="256" y="72">01</text>
<text x="288" y="72">01</text>
<text x="320" y="72">01</text>
<text x="352" y="72">01</text>
<text x="384" y="72">01</text>
<text x="416" y="72">01</text>
<text x="448" y="72">01</text>
<text x="480" y="72">01</text>
<text x="512" y="72">01</text>
<text x="544" y="72">01</text>
<text x="576" y="72">01</text>
<text x="608" y="72">01</text>
<text x="640" y="72">01</text>
<text x="672" y="72">01</text>
<text x="704" y="72">01</text>
<text x="736" y="72">01</text>
<text x="768" y="72">01</text>
<text x="800" y="72">01</text>
<text x="832" y="72">01</text>
<text x="864" y="72">01</text>
<text x="896" y="72">01</text>
<text x="928" y="72">01</text>
<text x="960" y="72">01</text>
<text x="992" y="72">01</text>
<text x="1024" y="72">01</text>
<text x="1056" y="72">01</text>
<text x="1088" y="72">01</text>
<text x="1120" y="72">01</text>
<text x="1152" y="72">01</text>
<text x="1184" y="72">01</text>
<text x="1216" y="72">01</text>
<text x="1248" y="72">01</text>
<text x="1280" y="72">01</text>
<text x="1312" y="72">01</text>
<text x="1344" y="72">01</text>
<text x="1376" y="72">01</text>
<text x="1408" y="72">01</text>
<text x="1440" y="72">01</text>
<text x="1472" y="72">01</text>
<text x="1504" y="72">01</text>
<text x="64" y="96">01</text>
<text x="96" y="96">01</text>
<text x="128" y="96">01</text>
<text x="160" y="96">01</text>
<text x="192" y="96">01</text>
<text x="224" y="96">01</text>
<text x="256" y="96">01</text>
<text x="288" y="96">01</text>
<text x="320" y="96">01</text>
<text x="352" y="96">01</text>
<text x="384" y="96">01</text>
<text x="416" y="96">01</text>
<text x="448" y="96">01</text>
<text x="480" y="96">01</text>
<text x="512" y="96">01</text>
<text x="544" y="96">01</text>
<text x="576" y="96">01</text>
<text x="608" y="96">01</text>
<text x="640" y="96">01</text>
<text x="672" y="96">01</text>
<text x="704" y="96">01</text>
<text x="736" y="96">01</text>
<text x="768" y="96">01</text>
<text x="800" y="96">01</text>
<text x="832" y="96">01</text>
<text x="864" y="96">01</text>
<text x="896" y="96">01</text>
<text x="928" y="96">01</text>
<text x="960" y="96">01</text>
<text x="992" y="96">01</text>
<text x="1024" y="96">01</text>
<text x="1056" y="96">01</text>
<text x="1088" y="96">01</text>
<text x="1120" y="96">01</text>
<text x="1152" y="96">01</text>
<text x="1184" y="96">01</text>
<text x="1216" y="96">01</text>
<text x="1248" y="96">01</text>
<text x="1280" y="96">01</text>
<text x="1312" y="96">01</text>
<text x="1344" y="96">01</text>
<text x="1376" y="96">01</text>
<text x="1408" y="96">01</text>
<text x="1440" y="96">01</text>
<text x="1472" y="96">01</text>
<text x="1504" y="96">01</text>
<text x="64" y="120">01</text>
<text x="96" y="120">01</text>
<text x="128" y="120">01</text>
<text x="160" y="120">01</text>
<text x="192" y="120">01</text>
<text x="224" y="120">01</text>
<text x="256" y="120">01</text>
<text x="288" y="120">01</text>
<text x="320" y="120">01</text>
<text x="352" y="120">01</text>
<text x="384" y="120">01</text>
<text x="416" y="120">01</text>
<text x="448" y="120">01</text>
<text x="480" y="120">01</text>
<text x="512" y="120">01</text>
<text x="544" y="120">01</text>
<text x="576" y="120">01</text>
<text x="608" y="120">01</text>
<text x="640" y="120">01</text>
<text x="672" y="120">01</text>
<text x="704" y="120">01</text>
<text x="736" y="120">01</text>
<text x="768" y="120">01</text>
<text x="800" y="120">01</text>
<text x="832" y="120">01</text>
<text x="864" y="120">01</text>
<text x="896" y="120">01</text>
<text x="928" y="120">01</text>
<text x="960" y="120">01</text>
<text x="992" y="120">01</text>
<text x="1024" y="120">01</text>
<text x="1056" y="120">01</text>
<text x="1088" y="120">01</text>
<text x="1120" y="120">01</text>
<text x="1152" y="120">01</text>
<text x="1184" y="120">01</text>
<text x="1216" y="120">01</text>
<text x="1248" y="120">01</text>
<text x="1280" y="120">01</text>
<text x="1312" y="120">01</text>
<text x="1344" y="120">01</text>
<text x="1376" y="120">01</text>
<text x="1408" y="120">01</text>
<text x="1440" y="120">01</text>
<text x="1472" y="120">01</text>
<text x="1504" y="120">01</text>
<text x="64" y="144">01</text>
<text x="96" y="144">01</text>
<text x="128" y="144">01</text>
<text x="160" y="144">01</text>
<text x="192" y="144">01</text>
<text x="224" y="144">01</text>
<text x="256" y="144">01</text>
<text x="288" y="144">01</text>
<text x="320" y="144">01</text>
<text x="352" y="144">01</text>
<text x="384" y="144">01</text>
<text x="416" y="144">01</text>
<text x="448" y="144">01</text>
<text x="480" y="144">01</text>
<text x="512" y="144">01</text>
<text x="544" y="144">01</text>
<text x="576" y="144">01</text>
<text x="608" y="144">01</text>
<text x="640" y="144">01</text>
<text x="672" y="144">01</text>
<text x="704" y="144">01</text>
<text x="736" y="144">01</text>
<text x="768" y="144">01</text>
<text x="800" y="144">01</text>
<text x="832" y="144">01</text>
<text x="864" y="144">01</text>
<text x="896" y="144">01</text>
<text x="928" y="144">01</text>
<text x="960" y="144">01</text>
<text x="992" y="144">01</text>
<text x="1024" y="144">01</text>
<text x="1056" y="144">01</text>
<text x="1088" y="144">01</text>
<text x="1120" y="144">01</text>
<text x="1152" y="144">01</text>
<text x="1184" y="144">01</text>
<text x="1216" y="144">01</text>
<text x="1248" y="144">01</text>
<text x="1280" y="144">01</text>
<text x="1312" y="144">01</text>
<text x="1344" y="144">01</text>
<text x="1376" y="144">01</text>
<text x="1408" y="144">01</text>
<text x="1440" y="144">01</text>
<text x="1472" y="144">01</text>
<text x="1504" y="144">01</text>
<text x="64" y="168">01</text>
<text x="96" y="168">01</text>
<text x="128" y="168">01</text>
<text x="160" y="168">01</text>
<text x="192" y="168">01</text>
<text x="224" y="168">01</text>
<text x="256" y="168">01</text>
<text x="288" y="168">01</text>
<text x="320" y="168">01</text>
<text x="352" y="168">01</text>
<text x="384" y="168">01</text>
<text x="416" y="168">01</text>
<text x="448" y="168">01</text>
<text x="480" y="168">01</text>
<text x="512" y="168">01</text>
<text x="544" y="168">01</text>
<text x="576" y="168">01</text>
<text x="608" y="168">01</text>
<text x="640" y="168">01</text>
<text x="672" y="168">01</text>
<text x="704" y="168">01</text>
<text x="736" y="168">01</text>
<text x="768" y="168">01</text>
<text x="800" y="168">01</text>
<text x="832" y="168">01</text>
<text x="864" y="168">01</text>
<text x="896" y="168">01</text>
<text x="928" y="168">01</text>
<text x="960" y="168">01</text>
<text x="992" y="168">01</text>
<text x="1024" y="168">01</text>
<text x="1056" y="168">01</text>
<text x="1088" y="168">01</text>
<text x="1120" y="168">01</text>
<text x="1152" y="168">01</text>
<text x="1184" y="168">01</text>
<text x="1216" y="168">01</text>
<text x="1248" y="168">01</text>
<text x="1280" y="168">01</text>
<text x="1312" y="168">01</text>
<text x="1344" y="168">01</text>
<text x="1376" y="168">01</text>
<text x="1408" y="168">01</text>
<text x="1440" y="168">01</text>
<text x="1472" y="168">01</text>
<text x="1504" y="168">01</text>
<text x="64" y="192">01</text>
<text x="96" y="192">01</text>
<text x="128" y="192">01</text>
<text x="160" y="192">01</text>
<text x="192" y="192">01</text>
<text x="224" y="192">01</text>
<text x="256" y="192">01</text>
<text x="288" y="192">01</text>
<text x="320" y="192">01</text>
<text x="352" y="192">01</text>
<text x="384" y="192">01</text>
<text x="416" y="192">01</text>
<text x="448" y="192">01</text>
<text x="480" y="192">01</text>
<text x="512" y="192">01</text>
<text x="544" y="192">01</text>
<text x="576" y="192">01</text>
<text x="608" y="192">01</text>
<text x="640" y="192">01</text>
<text x="672" y="192">01</text>
<text x="704" y="192">01</text>
<text x="736" y="192">01</text>
<text x="768" y="192">01</text>
<text x="800" y="192">01</text>
<text x="832" y="192">01</text>
<text x="864" y="192">01</text>
<text x="896" y="192">01</text>
<text x="928" y="192">01</text>
<text x="960" y="192">01</text>
<text x="992" y="192">01</text>
<text x="1024" y="192">01</text>
<text x="1056" y="192">01</text>
<text x="1088" y="192">01</text>
<text x="1120" y="192">01</text>
<text x="1152" y="192">01</text>
<text x="1184" y="192">01</text>
<text x="1216" y="192">01</text>
<text x="1248" y="192">01</text>
<text x="1280" y="192">01</text>
<text x="1312" y="192">01</text>
<text x="1344" y="192">01</text>
<text x="1376" y="192">01</text>
<text x="1408" y="192">01</text>
<text x="1440" y="192">01</text>
<text x="1472" y="192">01</text>
<text x="1504" y="192">01</text>
<text x="64" y="216">01</text>
<text x="96" y="216">01</text>
<text x="128" y="216">01</text>
<text x="160" y="216">01</text>
<text x="192" y="216">01</text>
<text x="224" y="216">01</text>
<text x="256" y="216">01</text>
<text x="288" y="216">01</text>
<text x="320" y="216">01</text>
<text x="352" y="216">01</text>
<text x="384" y="216">01</text>
<text x="416" y="216">01</text>
<text x="448" y="216">01</text>
<text x="480" y="216">01</text>
<text x="512" y="216">01</text>
<text x="544" y="216">01</text>
<text x="576" y="216">01</text>
<text x="608" y="216">01</text>
<text x="640" y="216">01</text>
<text x="672" y="216">01</text>
<text x="704" y="216">01</text>
<text x="736" y="216">01</text>
<text x="768" y="216">01</text>
<text x="800" y="216">01</text>
<text x="832" y="216">01</text>
<text x="864" y="216">01</text>
<text x="896" y="216">01</text>
<text x="928" y="216">01</text>
<text x="960" y="216">01</text>
<text x="992" y="216">01</text>
<text x="1024" y="216">01</text>
<text x="1056" y="216">01</text>
<text x="1088" y="216">01</text>
<text x="1120" y="216">01</text>
<text x="1152" y="216">01</text>
<text x="1184" y="216">01</text>
<text x="1216" y="216">01</text>
<text x="1248" y="216">01</text>
<text x="1280" y="216">01</text>
<text x="1312" y="216">01</text>
<text x="1344" y="216">01</text>
<text x="1376" y="216">01</text>
<text x="1408" y="216">01</text>
<text x="1440" y="216">01</text>
<text x="1472" y="216">01</text>
<text x="1504" y="216">01</text>
<text x="64" y="240">01</text>
<text x="96" y="240">01</text>
<text x="128" y="240">01</text>
<text x="160" y="240">01</text>
<text x="192" y="240">01</text>
<text x="224" y="240">01</text>
<text x="256" y="240">01</text>
<text x="288" y="240">01</text>
<text x="320" y="240">01</text>
<text x="352" y="240">01</text>
<text x="384" y="240">01</text>
<text x="416" y="240">01</text>
<text x="448" y="240">01</text>
<text x="480" y="240">01</text>
<text x="512" y="240">01</text>
<text x="544" y="240">01</text>
<text x="576" y="240">01</text>
<text x="608" y="240">01</text>
<text x="640" y="240">01</text>
<text x="672" y="240">01</text>
<text x="704" y="240">01</text>
<text x="736" y="240">01</text>
<text x="768" y="240">01</text>
<text x="800" y="240">01</text>
<text x="832" y="240">01</text>
<text x="864" y="240">01</text>
<text x="896" y="240">01</text>
<text x="928" y="240">01</text>
<text x="960" y="240">01</text>
<text x="992" y="240">01</text>
<text x="1024" y="240">01</text>
<text x="1056" y="240">01</text>
<text x="1088" y="240">01</text>
<text x="1120" y="240">01</text>
<text x="1152" y="240">01</text>
<text x="1184" y="240">01</text>
<text x="1216" y="240">01</text>
<text x="1248" y="240">01</text>
<text x="1280" y="240">01</text>
<text x="1312" y="240">01</text>
<text x="1344" y="240">01</text>
<text x="1376" y="240">01</text>
<text x="1408" y="240">01</text>
<text x="1440" y="240">01</text>
<text x="1472" y="240">01</text>
<text x="1504" y="240">01</text>
<text x="64" y="264">01</text>
<text x="96" y="264">01</text>
<text x="128" y="264">01</text>
<text x="160" y="264">01</text>
<text x="192" y="264">01</text>
<text x="224" y="264">01</text>
<text x="256" y="264">01</text>
<text x="288" y="264">01</text>
<text x="320" y="264">01</text>
<text x="352" y="264">01</text>
<text x="384" y="264">01</text>
<text x="416" y="264">01</text>
<text x="448" y="264">01</text>
<text x="480" y="264">01</text>
<text x="512" y="264">01</text>
<text x="544" y="264">01</text>
<text x="576" y="264">01</text>
<text x="608" y="264">01</text>
<text x="640" y="264">01</text>
<text x="672" y="264">01</text>
<text x="704" y="264">01</text>
<text x="736" y="264">01</text>
<text x="768" y="264">01</text>
<text x="800" y="264">01</text>
<text x="832" y="264">01</text>
<text x="864" y="264">01</text>
<text x="896" y="264">01</text>
<text x="928" y="264">01</text>
<text x="960" y="264">01</text>
<text x="992" y="264">01</text>
<text x="1024" y="264">01</text>
<text x="1056" y="264">01</text>
<text x="1088" y="264">01</text>
<text x="1120" y="264">01</text>
<text x="1152" y="264">01</text>
<text x="1184" y="264">01</text>
<text x="1216" y="264">01</text>
<text x="1248" y="264">01</text>
<text x="1280" y="264">01</text>
<text x="1312" y="264">01</text>
<text x="1344" y="264">01</text>
<text x="1376" y="264">01</text>
<text x="1408" y="264">01</text>
<text x="1440" y="264">01</text>
<text x="1472" y="264">01</text>
<text x="1504" y="264">01</text>
<text x="64" y="288">01</text>
<text x="96" y="288">01</text>
<text x="128" y="288">01</text>
<text x="160" y="288">01</text>
<text x="192" y="288">01</text>
<text x="224" y="288">01</text>
<text x="256" y="288">01</text>
<text x="288" y="288">01</text>
<text x="320" y="288">01</text>
<text x="352" y="288">01</text>
<text x="384" y="288">01</text>
<text x="416" y="288">01</text>
<text x="448" y="288">01</text>
<text x="480" y="288">01</text>
<text x="512" y="288">01</text>
<text x="544" y="288">01</text>
<text x="576" y="288">01</text>
<text x="608" y="288">01</text>
<text x="640" y="288">01</text>
<text x="672" y="288">01</text>
<text x="704" y="288">01</text>
<text x="736" y="288">01</text>
<text x="768" y="288">01</text>
<text x="800" y="288">01</text>
<text x="832" y="288">01</text>
<text x="864" y="288">01</text>
<text x="896" y="288">01</text>
<text x="928" y="288">01</text>
<text x="960" y="288">01</text>
<text x="992" y="288">01</text>
<text x="1024" y="288">01</text>
<text x="1056" y="288">01</text>
<text x="1088" y="288">01</text>
<text x="1120" y="288">01</text>
<text x="1152" y="288">01</text>
<text x="1184" y="288">01</text>
<text x="1216" y="288">01</text>
<text x="1248" y="288">01</text>
<text x="1280" y="288">01</text>
<text x="1312" y="288">01</text>
<text x="1344" y="288">01</text>
<text x="1376" y="288">01</text>
<text x="1408" y="288">01</text>
<text x="1440" y="288">01</text>
<text x="1472" y="288">01</text>
<text x="1504" y="288">01</text>
<text x="64" y="312">01</text>
<text x="96" y="312">01</text>
<text x="128" y="312">01</text>
<text x="160" y="312">01</text>
<text x="192" y="312">01</text>
<text x="224" y="312">01</text>
<text x="256" y="312">01</text>
<text x="288" y="312">01</text>
<text x="320" y="312">01</text>
<text x="352" y="312">01</text>
<text x="384" y="312">01</text>
<text x="416" y="312">01</text>
<text x="448" y="312">01</text>
<text x="480" y="312">01</text>
<text x="512" y="312">01</text>
<text x="544" y="312">01</text>
<text x="576" y="312">01</text>
<text x="608" y="312">01</text>
<text x="640" y="312">01</text>
<text x="672" y="312">01</text>
<text x="704" y="312">01</text>
<text x="736" y="312">01</text>
<text x="768" y="312">01</text>
<text x="800" y="312">01</text>
<text x="832" y="312">01</text>
<text x="864" y="312">01</text>
<text x="896" y="312">01</text>
<text x="928" y="312">01</text>
<text x="960" y="312">01</text>
<text x="992" y="312">01</text>
<text x="1024" y="312">01</text>
<text x="1056" y="312">01</text>
<text x="1088" y="312">01</text>
<text x="1120" y="312">01</text>
<text x="1152" y="312">01</text>
<text x="1184" y="312">01</text>
<text x="1216" y="312">01</text>
<text x="1248" y="312">01</text>
<text x="1280" y="312">01</text>
<text x="1312" y="312">01</text>
<text x="1344" y="312">01</text>
<text x="1376" y="312">01</text>
<text x="1408" y="312">01</text>
<text x="1440" y="312">01</text>
<text x="1472" y="312">01</text>
<text x="1504" y="312">01</text>
<text x="64" y="336">01</text>
<text x="96" y="336">01</text>
<text x="128" y="336">01</text>
<text x="160" y="336">01</text>
<text x="192" y="336">01</text>
<text x="224" y="336">01</text>
<text x="256" y="336">01</text>
<text x="288" y="336">01</text>
<text x="320" y="336">01</text>
<text x="352" y="336">01</text>
<text x="384" y="336">01</text>
<text x="416" y="336">01</text>
<text x="448" y="336">01</text>
<text x="480" y="336">01</text>
<text x="512" y="336">01</text>
<text x="544" y="336">01</text>
<text x="576" y="336">01</text>
<text x="608" y="336">01</text>
<text x="640" y="336">01</text>
<text x="672" y="336">01</text>
<text x="704" y="336">01</text>
<text x="736" y="336">01</text>
<text x="768" y="336">01</text>
<text x="800" y="336">01</text>
<text x="832" y="336">01</text>
<text x="864" y="336">01</text>
<text x="896" y="336">01</text>
<text x="928" y="336">01</text>
<text x="960" y="336">01</text>
<text x="992" y="336">01</text>
<text x="1024" y="336">01</text>
<text x="1056" y="336">01</text>
<text x="1088" y="336">01</text>
<text x="1120" y="336">01</text>
<text x="1152" y="336">01</text>
<text x="1184" y="336">01</text>
<text x="1216" y="336">01</text>
<text x="1248" y="336">01</text>
<text x="1280" y="336">01</text>
<text x="1312" y="336">01</text>
<text x="1344" y="336">01</text>
<text x="1376" y="336">01</text>
<text x="1408" y="336">01</text>
<text x="1440" y="336">01</text>
<text x="1472" y="336">01</text>
<text x="1504" y="336">01</text>
<text x="64" y="360">01</text>
<text x="96" y="360">01</text>
<text x="128" y="360">01</text>
<text x="160" y="360">01</text>
<text x="192" y="360">01</text>
<text x="224" y="360">01</text>
<text x="256" y="360">01</text>
<text x="288" y="360">01</text>
<text x="320" y="360">01</text>
<text x="352" y="360">01</text>
<text x="384" y="360">01</text>
<text x="416" y="360">01</text>
<text x="448" y="360">01</text>
<text x="480" y="360">01</text>
<text x="512" y="360">01</text>
<text x="544" y="360">01</text>
<text x="576" y="360">01</text>
<text x="608" y="360">01</text>
<text x="640" y="360">01</text>
<text x="672" y="360">01</text>
<text x="704" y="360">01</text>
<text x="736" y="360">01</text>
<text x="768" y="360">01</text>
<text x="800" y="360">01</text>
<text x="832" y="360">01</text>
<text x="864" y="360">01</text>
<text x="896" y="360">01</text>
<text x="928" y="360">01</text>
<text x="960" y="360">01</text>
<text x="992" y="360">01</text>
<text x="1024" y="360">01</text>
<text x="1056" y="360">01</text>
<text x="1088" y="360">01</text>
<text x="1120" y="360">01</text>
<text x="1152" y="360">01</text>
<text x="1184" y="360">01</text>
<text x="1216" y="360">01</text>
<text x="1248" y="360">01</text>
<text x="1280" y="360">01</text>
<text x="1312" y="360">01</text>
<text x="1344" y="360">01</text>
<text x="1376" y="360">01</text>
<text x="1408" y="360">01</text>
<text x="1440" y="360">01</text>
<text x="1472" y="360">01</text>
<text x="1504" y="360">01</text>
<text x="64" y="384">01</text>
<text x="96" y="384">01</text>
<text x="128" y="384">01</text>
<text x="160" y="384">01</text>
<text x="192" y="384">01</text>
<text x="224" y="384">01</text>
<text x="256" y="384">01</text>
<text x="288" y="384">01</text>
<text x="320" y="384">01</text>
<text x="352" y="384">01</text>
<text x="384" y="384">01</text>
<text x="416" y="384">01</text>
<text x="448" y="384">01</text>
<text x="480" y="384">01</text>
<text x="512" y="384">01</text>
<text x="544" y="384">01</text>
<text x="576" y="384">01</text>
<text x="608" y="384">01</text>
<text x="640" y="384">01</text>
<text x="672" y="384">01</text>
<text x="704" y="384">01</text>
<text x="736" y="384">01</text>
<text x="768" y="384">01</text>
<text x="800" y="384">01</text>
<text x="832" y="384">01</text>
<text x="864" y="384">01</text>
<text x="896" y="384">01</text>
<text x="928" y="384">01</text>
<text x="960" y="384">01</text>
<text x="992" y="384">01</text>
<text x="1024" y="384">01</text>
<text x="1056" y="384">01</text>
<text x="1088" y="384">01</text>
<text x="1120" y="384">01</text>
<text x="1152" y="384">01</text>
<text x="1184" y="384">01</text>
<text x="1216" y="384">01</text>
<text x="1248" y="384">01</text>
<text x="1280" y="384">01</text>
<text x="1312" y="384">01</text>
<text x="1344" y="384">01</text>
<text x="1376" y="384">01</text>
<text x="1408" y="384">01</text>
<text x="1440" y="384">01</text>
<text x="1472" y="384">01</text>
<text x="1504" y="384">01</text>
<text x="64" y="408">01</text>
<text x="96" y="408">01</text>
<text x="128" y="408">01</text>
<text x="160" y="408">01</text>
<text x="192" y="408">01</text>
<text x="224" y="408">01</text>
<text x="256" y="408">01</text>
<text x="288" y="408">01</text>
<text x="320" y="408">01</text>
<text x="352" y="408">01</text>
<text x="384" y="408">01</text>
<text x="416" y="408">01</text>
<text x="448" y="408">01</text>
<text x="480" y="408">01</text>
<text x="512" y="408">01</text>
<text x="544" y="408">01</text>
<text x="576" y="408">01</text>
<text x="608" y="408">01</text>
<text x="640" y="408">01</text>
<text x="672" y="408">01</text>
<text x="704" y="408">01</text>
<text x="736" y="408">01</text>
<text x="768" y="408">01</text>
<text x="800" y="408">01</text>
<text x="832" y="408">01</text>
<text x="864" y="408">01</text>
<text x="896" y="408">01</text>
<text x="928" y="408">01</text>
<text x="960" y="408">01</text>
<text x="992" y="408">01</text>
<text x="1024" y="408">01</text>
<text x="1056" y="408">01</text>
<text x="1088" y="408">01</text>
<text x="1120" y="408">01</text>
<text x="1152" y="408">01</text>
<text x="1184" y="408">01</text>
<text x="1216" y="408">01</text>
<text x="1248" y="408">01</text>
<text x="1280" y="408">01</text>
<text x="1312" y="408">01</text>
<text x="1344" y="408">01</text>
<text x="1376" y="408">01</text>
<text x="1408" y="408">01</text>
<text x="1440" y="408">01</text>
<text x="1472" y="408">01</text>
<text x="1504" y="408">01</text>
<text x="64" y="432">01</text>
<text x="96" y="432">01</text>
<text x="128" y="432">01</text>
<text x="160" y="432">01</text>
<text x="192" y="432">01</text>
<text x="224" y="432">01</text>
<text x="256" y="432">01</text>
<text x="288" y="432">01</text>
<text x="320" y="432">01</text>
<text x="352" y="432">01</text>
<text x="384" y="432">01</text>
<text x="416" y="432">01</text>
<text x="448" y="432">01</text>
<text x="480" y="432">01</text>
<text x="512" y="432">01</text>
<text x="544" y="432">01</text>
<text x="576" y="432">01</text>
<text x="608" y="432">01</text>
<text x="640" y="432">01</text>
<text x="672" y="432">01</text>
<text x="704" y="432">01</text>
<text x="736" y="432">01</text>
<text x="768" y="432">01</text>
<text x="800" y="432">01</text>
<text x="832" y="432">01</text>
<text x="864" y="432">01</text>
<text x="896" y="432">01</text>
<text x="928" y="432">01</text>
<text x="960" y="432">01</text>
<text x="992" y="432">01</text>
<text x="1024" y="432">01</text>
<text x="1056" y="432">01</text>
<text x="1088" y="432">01</text>
<text x="1120" y="432">01</text>
<text x="1152" y="432">01</text>
<text x="1184" y="432">01</text>
<text x="1216" y="432">01</text>
<text x="1248" y="432">01</text>
<text x="1280" y="432">01</text>
<text x="1312" y="432">01</text>
<text x="1344" y="432">01</text>
<text x="1376" y="432">01</text>
<text x="1408" y="432">01</text>
<text x="1440" y="432">01</text>
<text x="1472" y="432">01</text>
<text x="1504" y="432">01</text>
<text x="64" y="456">01</text>
<text x="96" y="456">01</text>
<text x="128" y="456">01</text>
<text x="160" y="456">01</text>
<text x="192" y="456">01</text>
<text x="224" y="456">01</text>
<text x="256" y="456">01</text>
<text x="288" y="456">01</text>
<text x="320" y="456">01</text>
<text x="352" y="456">01</text>
<text x="384" y="456">01</text>
<text x="416" y="456">01</text>
<text x="448" y="456">01</text>
<text x="480" y="456">01</text>
<text x="512" y="456">01</text>
<text x="544" y="456">01</text>
<text x="576" y="456">01</text>
<text x="608" y="456">01</text>
<text x="640" y="456">01</text>
<text x="672" y="456">01</text>
<text x="704" y="456">01</text>
<text x="736" y="456">01</text>
<text x="768" y="456">01</text>
<text x="800" y="456">01</text>
<text x="832" y="456">01</text>
<text x="864" y="456">01</text>
<text x="896" y="456">01</text>
<text x="928" y="456">01</text>
<text x="960" y="456">01</text>
<text x="992" y="456">01</text>
<text x="1024" y="456">01</text>
<text x="1056" y="456">01</text>
<text x="1088" y="456">01</text>
<text x="1120" y="456">01</text>
<text x="1152" y="456">01</text>
<text x="1184" y="456">01</text>
<text x="1216" y="456">01</text>
<text x="1248" y="456">01</text>
<text x="1280" y="456">01</text>
<text x="1312" y="456">01</text>
<text x="1344" y="456">01</text>
<text x="1376" y="456">01</text>
<text x="1408" y="456">01</text>
<text x="1440" y="456">01</text>
<text x="1472" y="456">01</text>
<text x="1504" y="456">01</text>
<text x="64" y="480">01</text>
<text x="96" y="480">01</text>
<text x="128" y="480">01</text>
<text x="160" y="480">01</text>
<text x="192" y="480">01</text>
<text x="224" y="480">01</text>
<text x="256" y="480">01</text>
<text x="288" y="480">01</text>
<text x="320" y="480">01</text>
<text x="352" y="480">01</text>
<text x="384" y="480">01</text>
<text x="416" y="480">01</text>
<text x="448" y="480">01</text>
<text x="480" y="480">01</text>
<text x="512" y="480">01</text>
<text x="544" y="480">01</text>
<text x="576" y="480">01</text>
<text x="608" y="480">01</text>
<text x="640" y="480">01</text>
<text x="672" y="480">01</text>
<text x="704" y="480">01</text>
<text x="736" y="480">01</text>
<text x="768" y="480">01</text>
<text x="800" y="480">01</text>
<text x="832" y="480">01</text>
<text x="864" y="480">01</text>
<text x="896" y="480">01</text>
<text x="928" y="480">01</text>
<text x="960" y="480">01</text>
<text x="992" y="480">01</text>
<text x="1024" y="480">01</text>
<text x="1056" y="480">01</text>
<text x="1088" y="480">01</text>
<text x="1120" y="480">01</text>
<text x="1152" y="480">01</text>
<text x="1184" y="480">01</text>
<text x="1216" y="480">01</text>
<text x="1248" y="480">01</text>
<text x="1280" y="480">01</text>
<text x="1312" y="480">01</text>
<text x="1344" y="480">01</text>
<text x="1376" y="480">01</text>
<text x="1408" y="480">01</text>
<text x="1440" y="480">01</text>
<text x="1472" y="480">01</text>
<text x="1504" y="480">01</text>
<text x="64" y="504">01</text>
<text x="96" y="504">01</text>
<text x="128" y="504">01</text>
<text x="160" y="504">01</text>
<text x="192" y="504">01</text>
<text x="224" y="504">01</text>
<text x="256" y="504">01</text>
<text x="288" y="504">01</text>
<text x="320" y="504">01</text>
<text x="352" y="504">01</text>
<text x="384" y="504">01</text>
<text x="416" y="504">01</text>
<text x="448" y="504">01</text>
<text x="480" y="504">01</text>
<text x="512" y="504">01</text>
<text x="544" y="504">01</text>
<text x="576" y="504">01</text>
<text x="608" y="504">01</text>
<text x="640" y="504">01</text>
<text x="672" y="504">01</text>
<text x="704" y="504">01</text>
<text x="736" y="504">01</text>
<text x="768" y="504">01</text>
<text x="800" y="504">01</text>
<text x="832" y="504">01</text>
<text x="864" y="504">01</text>
<text x="896" y="504">01</text>
<text x="928" y="504">01</text>
<text x="960" y="504">01</text>
<text x="992" y="504">01</text>
<text x="1024" y="504">01</text>
<text x="1056" y="504">01</text>
<text x="1088" y="504">01</text>
<text x="1120" y="504">01</text>
<text x="1152" y="504">01</text>
<text x="1184" y="504">01</text>
<text x="1216" y="504">01</text>
<text x="1248" y="504">01</text>
<text x="1280" y="504">01</text>
<text x="1312" y="504">01</text>
<text x="1344" y="504">01</text>
<text x="1376" y="504">01</text>
<text x="1408" y="504">01</text>
<text x="1440" y="504">01</text>
<text x="1472" y="504">01</text>
<text x="1504" y="504">01</text>
<text x="64" y="528">01</text>
<text x="96" y="528">01</text>
<text x="128" y="528">01</text>
<text x="160" y="528">01</text>
<text x="192" y="528">01</text>
<text x="224" y="528">01</text>
<text x="256" y="528">01</text>
<text x="288" y="528">01</text>
<text x="320" y="528">01</text>
<text x="352" y="528">01</text>
<text x="384" y="528">01</text>
<text x="416" y="528">01</text>
<text x="448" y="528">01</text>
<text x="480" y="528">01</text>
<text x="512" y="528">01</text>
<text x="544" y="528">01</text>
<text x="576" y="528">01</text>
<text x="608" y="528">01</text>
<text x="640" y="528">01</text>
<text x="672" y="528">01</text>
<text x="704" y="528">01</text>
<text x="736" y="528">01</text>
<text x="768" y="528">01</text>
<text x="800" y="528">01</text>
<text x="832" y="528">01</text>
<text x="864" y="528">01</text>
<text x="896" y="528">01</text>
<text x="928" y="528">01</text>
<text x="960" y="528">01</text>
<text x="992" y="528">01</text>
<text x="1024" y="528">01</text>
<text x="1056" y="528">01</text>
<text x="1088" y="528">01</text>
<text x="1120" y="528">01</text>
<text x="1152" y="528">01</text>
<text x="1184" y="528">01</text>
<text x="1216" y="528">01</text>
<text x="1248" y="528">01</text>
<text x="1280" y="528">01</text>
<text x="1312" y="528">01</text>
<text x="1344" y="528">01</text>
<text x="1376" y="528">01</text>
<text x="1408" y="528">01</text>
<text x="1440" y="528">01</text>
<text x="1472" y="528">01</text>
<text x="1504" y="528">01</text>
<text x="64" y="552">01</text>
<text x="96" y="552">01</text>
<text x="128" y="552">01</text>
<text x="160" y="552">01</text>
<text x="192" y="552">01</text>
<text x="224" y="552">01</text>
<text x="256" y="552">01</text>
<text x="288" y="552">01</text>
<text x="320" y="552">01</text>
<text x="352" y="552">01</text>
<text x="384" y="552">01</text>
<text x="416" y="552">01</text>
<text x="448" y="552">01</text>
<text x="480" y="552">01</text>
<text x="512" y="552">01</text>
<text x="544" y="552">01</text>
<text x="576" y="552">01</text>
<text x="608" y="552">01</text>
<text x="640" y="552">01</text>
<text x="672" y="552">01</text>
<text x="704" y="552">01</text>
<text x="736" y="552">01</text>
<text x="768" y="552">01</text>
<text x="800" y="552">01</text>
<text x="832" y="552">01</text>
<text x="864" y="552">01</text>
<text x="896" y="552">01</text>
<text x="928" y="552">01</text>
<text x="960" y="552">01</text>
<text x="992" y="552">01</text>
<text x="1024" y="552">01</text>
<text x="1056" y="552">01</text>
<text x="1088" y="552">01</text>
<text x="1120" y="552">01</text>
<text x="1152" y="552">01</text>
<text x="1184" y="552">01</text>
<text x="1216" y="552">01</text>
<text x="1248" y="552">01</text>
<text x="1280" y="552">01</text>
<text x="1312" y="552">01</text>
<text x="1344" y="552">01</text>
<text x="1376" y="552">01</text>
<text x="1408" y="552">01</text>
<text x="1440" y="552">01</text>
<text x="1472" y="552">01</text>
<text x="1504" y="552">01</text>
<text x="64" y="576">01</text>
<text x="96" y="576">01</text>
<text x="128" y="576">01</text>
<text x="160" y="576">01</text>
<text x="192" y="576">01</text>
<text x="224" y="576">01</text>
<text x="256" y="576">01</text>
<text x="288" y="576">01</text>
<text x="320" y="576">01</text>
<text x="352" y="576">01</text>
<text x="384" y="576">01</text>
<text x="416" y="576">01</text>
<text x="448" y="576">01</text>
<text x="480" y="576">01</text>
<text x="512" y="576">01</text>
<text x="544" y="576">01</text>
<text x="576" y="576">01</text>
<text x="608" y="576">01</text>
<text x="640" y="576">01</text>
<text x="672" y="576">01</text>
<text x="704" y="576">01</text>
<text x="736" y="576">01</text>
<text x="768" y="576">01</text>
<text x="800" y="576">01</text>
<text x="832" y="576">01</text>
<text x="864" y="576">01</text>
<text x="896" y="576">01</text>
<text x="928" y="576">01</text>
<text x="960" y="576">01</text>
<text x="992" y="576">01</text>
<text x="1024" y="576">01</text>
<text x="1056" y="576">01</text>
<text x="1088" y="576">01</text>
<text x="1120" y="576">01</text>
<text x="1152" y="576">01</text>
<text x="1184" y="576">01</text>
<text x="1216" y="576">01</text>
<text x="1248" y="576">01</text>
<text x="1280" y="576">01</text>
<text x="1312" y="576">01</text>
<text x="1344" y="576">01</text>
<text x="1376" y="576">01</text>
<text x="1408" y="576">01</text>
<text x="1440" y="576">01</text>
<text x="1472" y="576">01</text>
<text x="1504" y="576">01</text>
<text x="64" y="600">01</text>
<text x="96" y="600">01</text>
<text x="128" y="600">01</text>
<text x="160" y="600">01</text>
<text x="192" y="600">01</text>
<text x="224" y="600">01</text>
<text x="256" y="600">01</text>
<text x="288" y="600">01</text>
<text x="320" y="600">01</text>
<text x="352" y="600">01</text>
<text x="384" y="600">01</text>
<text x="416" y="600">01</text>
<text x="448" y="600">01</text>
<text x="480" y="600">01</text>
<text x="512" y="600">01</text>
<text x="544" y="600">01</text>
<text x="576" y="600">01</text>
<text x="608" y="600">01</text>
<text x="640" y="600">01</text>
<text x="672" y="600">01</text>
<text x="704" y="600">01</text>
<text x="736" y="600">01</text>
<text x="768" y="600">01</text>
<text x="800" y="600">01</text>
<text x="832" y="600">01</text>
<text x="864" y="600">01</text>
<text x="896" y="600">01</text>
<text x="928" y="600">01</text>
<text x="960" y="600">01</text>
<text x="992" y="600">01</text>
<text x="1024" y="600">01</text>
<text x="1056" y="600">01</text>
<text x="1088" y="600">01</text>
<text x="1120" y="600">01</text>
<text x="1152" y="600">01</text>
<text x="1184" y="600">01</text>
<text x="1216" y="600">01</text>
<text x="1248" y="600">01</text>
<text x="1280" y="600">01</text>
<text x="1312" y="600">01</text>
<text x="1344" y="600">01</text>
<text x="1376" y="600">01</text>
<text x="1408" y="600">01</text>
<text x="1440" y="600">01</text>
<text x="1472" y="600">01</text>
<text x="1504" y="600">01</text>
<text x="64" y="624">01</text>
<text x="96" y="624">01</text>
<text x="128" y="624">01</text>
<text x="160" y="624">01</text>
<text x="192" y="624">01</text>
<text x="224" y="624">01</text>
<text x="256" y="624">01</text>
<text x="288" y="624">01</text>
<text x="320" y="624">01</text>
<text x="352" y="624">01</text>
<text x="384" y="624">01</text>
<text x="416" y="624">01</text>
<text x="448" y="624">01</text>
<text x="480" y="624">01</text>
<text x="512" y="624">01</text>
<text x="544" y="624">01</text>
<text x="576" y="624">01</text>
<text x="608" y="624">01</text>
<text x="640" y="624">01</text>
<text x="672" y="624">01</text>
<text x="704" y="624">01</text>
<text x="736" y="624">01</text>
<text x="768" y="624">01</text>
<text x="800" y="624">01</text>
<text x="832" y="624">01</text>
<text x="864" y="624">01</text>
<text x="896" y="624">01</text>
<text x="928" y="624">01</text>
<text x="960" y="624">01</text>
<text x="992" y="624">01</text>
<text x="1024" y="624">01</text>
<text x="1056" y="624">01</text>
<text x="1088" y="624">01</text>
<text x="1120" y="624">01</text>
<text x="1152" y="624">01</text>
<text x="1184" y="624">01</text>
<text x="1216" y="624">01</text>
<text x="1248" y="624">01</text>
<text x="1280" y="624">01</text>
<text x="1312" y="624">01</text>
<text x="1344" y="624">01</text>
<text x="1376" y="624">01</text>
<text x="1408" y="624">01</text>
<text x="1440" y="624">01</text>
<text x="1472" y="624">01</text>
<text x="1504" y="624">01</text>
<text x="64" y="648">01</text>
<text x="96" y="648">01</text>
<text x="128" y="648">01</text>
<text x="160" y="648">01</text>
<text x="192" y="648">01</text>
<text x="224" y="648">01</text>
<text x="256" y="648">01</text>
<text x="288" y="648">01</text>
<text x="320" y="648">01</text>
<text x="352" y="648">01</text>
<text x="384" y="648">01</text>
<text x="416" y="648">01</text>
<text x="448" y="648">01</text>
<text x="480" y="648">01</text>
<text x="512" y="648">01</text>
<text x="544" y="648">01</text>
<text x="576" y="648">01</text>
<text x="608" y="648">01</text>
<text x="640" y="648">01</text>
<text x="672" y="648">01</text>
<text x="704" y="648">01</text>
<text x="736" y="648">01</text>
<text x="768" y="648">01</text>
<text x="800" y="648">01</text>
<text x="832" y="648">01</text>
<text x="864" y="648">01</text>
<text x="896" y="648">01</text>
<text x="928" y="648">01</text>
<text x="960" y="648">01</text>
<text x="992" y="648">01</text>
<text x="1024" y="648">01</text>
<text x="1056" y="648">01</text>
<text x="1088" y="648">01</text>
<text x="1120" y="648">01</text>
<text x="1152" y="648">01</text>
<text x="1184" y="648">01</text>
<text x="1216" y="648">01</text>
<text x="1248" y="648">01</text>
<text x="1280" y="648">01</text>
<text x="1312" y="648">01</text>
<text x="1344" y="648">01</text>
<text x="1376" y="648">01</text>
<text x="1408" y="648">01</text>
<text x="1440" y="648">01</text>
<text x="1472" y="648">01</text>
<text x="1504" y="648">01</text>
<text x="64" y="672">01</text>
<text x="96" y="672">01</text>
<text x="128" y="672">01</text>
<text x="160" y="672">01</text>
<text x="192" y="672">01</text>
<text x="224" y="672">01</text>
<text x="256" y="672">01</text>
<text x="288" y="672">01</text>
<text x="320" y="672">01</text>
<text x="352" y="672">01</text>
<text x="384" y="672">01</text>
<text x="416" y="672">01</text>
<text x="448" y="672">01</text>
<text x="480" y="672">01</text>
<text x="512" y="672">01</text>
<text x="544" y="672">01</text>
<text x="576" y="672">01</text>
<text x="608" y="672">01</text>
<text x="640" y="672">01</text>
<text x="672" y="672">01</text>
<text x="704" y="672">01</text>
<text x="736" y="672">01</text>
<text x="768" y="672">01</text>
<text x="800" y="672">01</text>
<text x="832" y="672">01</text>
<text x="864" y="672">01</text>
<text x="896" y="672">01</text>
<text x="928" y="672">01</text>
<text x="960" y="672">01</text>
<text x="992" y="672">01</text>
<text x="1024" y="672">01</text>
<text x="1056" y="672">01</text>
<text x="1088" y="672">01</text>
<text x="1120" y="672">01</text>
<text x="1152" y="672">01</text>
<text x="1184" y="672">01</text>
<text x="1216" y="672">01</text>
<text x="1248" y="672">01</text>
<text x="1280" y="672">01</text>
<text x="1312" y="672">01</text>
<text x="1344" y="672">01</text>
<text x="1376" y="672">01</text>
<text x="1408" y="672">01</text>
<text x="1440" y="672">01</text>
<text x="1472" y="672">01</text>
<text x="1504" y="672">01</text>
<text x="64" y="696">01</text>
<text x="96" y="696">01</text>
<text x="128" y="696">01</text>
<text x="160" y="696">01</text>
<text x="192" y="696">01</text>
<text x="224" y="696">01</text>
<text x="256" y="696">01</text>
<text x="288" y="696">01</text>
<text x="320" y="696">01</text>
<text x="352" y="696">01</text>
<text x="384" y="696">01</text>
<text x="416" y="696">01</text>
<text x="448" y="696">01</text>
<text x="480" y="696">01</text>
<text x="512" y="696">01</text>
<text x="544" y="696">01</text>
<text x="576" y="696">01</text>
<text x="608" y="696">01</text>
<text x="640" y="696">01</text>
<text x="672" y="696">01</text>
<text x="704" y="696">01</text>
<text x="736" y="696">01</text>
<text x="768" y="696">01</text>
<text x="800" y="696">01</text>
<text x="832" y="696">01</text>
<text x="864" y="696">01</text>
<text x="896" y="696">01</text>
<text x="928" y="696">01</text>
<text x="960" y="696">01</text>
<text x="992" y="696">01</text>
<text x="1024" y="696">01</text>
<text x="1056" y="696">01</text>
<text x="1088" y="696">01</text>
<text x="1120" y="696">01</text>
<text x="1152" y="696">01</text>
<text x="1184" y="696">01</text>
<text x="1216" y="696">01</text>
<text x="1248" y="696">01</text>
<text x="1280" y="696">01</text>
<text x="1312" y="696">01</text>
<text x="1344" y="696">01</text>
<text x="1376" y="696">01</text>
<text x="1408" y="696">01</text>
<text x="1440" y="696">01</text>
<text x="1472" y="696">01</text>
<text x="1504" y="696">01</text>
<text x="64" y="720">01</text>
<text x="96" y="720">01</text>
<text x="128" y="720">01</text>
<text x="160" y="720">01</text>
<text x="192" y="720">01</text>
<text x="224" y="720">01</text>
<text x="256" y="720">01</text>
<text x="288" y="720">01</text>
<text x="320" y="720">01</text>
<text x="352" y="720">01</text>
<text x="384" y="720">01</text>
<text x="416" y="720">01</text>
<text x="448" y="720">01</text>
<text x="480" y="720">01</text>
<text x="512" y="720">01</text>
<text x="544" y="720">01</text>
<text x="576" y="720">01</text>
<text x="608" y="720">01</text>
<text x="640" y="720">01</text>
<text x="672" y="720">01</text>
<text x="704" y="720">01</text>
<text x="736" y="720">01</text>
<text x="768" y="720">01</text>
<text x="800" y="720">01</text>
<text x="832" y="720">01</text>
<text x="864" y="720">01</text>
<text x="896" y="720">01</text>
<text x="928" y="720">01</text>
<text x="960" y="720">01</text>
<text x="992" y="720">01</text>
<text x="1024" y="720">01</text>
<text x="1056" y="720">01</text>
<text x="1088" y="720">01</text>
<text x="1120" y="720">01</text>
<text x="1152" y="720">01</text>
<text x="1184" y="720">01</text>
<text x="1216" y="720">01</text>
<text x="1248" y="720">01</text>
<text x="1280" y="720">01</text>
<text x="1312" y="720">01</text>
<text x="1344" y="720">01</text>
<text x="1376" y="720">01</text>
<text x="1408" y="720">01</text>
<text x="1440" y="720">01</text>
<text x="1472" y="720">01</text>
<text x="1504" y="720">01</text>
<text x="64" y="744">01</text>
<text x="96" y="744">01</text>
<text x="128" y="744">01</text>
<text x="160" y="744">01</text>
<text x="192" y="744">01</text>
<text x="224" y="744">01</text>
<text x="256" y="744">01</text>
<text x="288" y="744">01</text>
<text x="320" y="744">01</text>
<text x="352" y="744">01</text>
<text x="384" y="744">01</text>
<text x="416" y="744">01</text>
<text x="448" y="744">01</text>
<text x="480" y="744">01</text>
<text x="512" y="744">01</text>
<text x="544" y="744">01</text>
<text x="576" y="744">01</text>
<text x="608" y="744">01</text>
<text x="640" y="744">01</text>
<text x="672" y="744">01</text>
<text x="704" y="744">01</text>
<text x="736" y="744">01</text>
<text x="768" y="744">01</text>
<text x="800" y="744">01</text>
<text x="832" y="744">01</text>
<text x="864" y="744">01</text>
<text x="896" y="744">01</text>
<text x="928" y="744">01</text>
<text x="960" y="744">01</text>
<text x="992" y="744">01</text>
<text x="1024" y="744">01</text>
<text x="1056" y="744">01</text>
<text x="1088" y="744">01</text>
<text x="1120" y="744">01</text>
<text x="1152" y="744">01</text>
<text x="1184" y="744">01</text>
<text x="1216" y="744">01</text>
<text x="1248" y="744">01</text>
<text x="1280" y="744">01</text>
<text x="1312" y="744">01</text>
<text x="1344" y="744">01</text>
<text x="1376" y="744">01</text>
<text x="1408" y="744">01</text>
<text x="1440" y="744">01</text>
<text x="1472" y="744">01</text>
<text x="1504" y="744">01</text>
<text x="64" y="768">01</text>
<text x="96" y="768">01</text>
<text x="128" y="768">01</text>
<text x="160" y="768">01</text>
<text x="192" y="768">01</text>
<text x="224" y="768">01</text>
<text x="256" y="768">01</text>
<text x="288" y="768">01</text>
<text x="320" y="768">01</text>
<text x="352" y="768">01</text>
<text x="384" y="768">01</text>
<text x="416" y="768">01</text>
<text x="448" y="768">01</text>
<text x="480" y="768">01</text>
<text x="512" y="768">01</text>
<text x="544" y="768">01</text>
<text x="576" y="768">01</text>
<text x="608" y="768">01</text>
<text x="640" y="768">01</text>
<text x="672" y="768">01</text>
<text x="704" y="768">01</text>
<text x="736" y="768">01</text>
<text x="768" y="768">01</text>
<text x="800" y="768">01</text>
<text x="832" y="768">01</text>
<text x="864" y="768">01</text>
<text x="896" y="768">01</text>
<text x="928" y="768">01</text>
<text x="960" y="768">01</text>
<text x="992" y="768">01</text>
<text x="1024" y="768">01</text>
<text x="1056" y="768">01</text>
<text x="1088" y="768">01</text>
<text x="1120" y="768">01</text>
<text x="1152" y="768">01</text>
<text x="1184" y="768">01</text>
<text x="1216" y="768">01</text>
<text x="1248" y="768">01</text>
<text x="1280" y="768">01</text>
<text x="1312" y="768">01</text>
<text x="1344" y="768">01</text>
<text x="1376" y="768">01</text>
<text x="1408" y="768">01</text>
<text x="1440" y="768">01</text>
<text x="1472" y="768">01</text>
<text x="1504" y="768">01</text>
<text x="64" y="792">01</text>
<text x="96" y="792">01</text>
<text x="128" y="792">01</text>
<text x="160" y="792">01</text>
<text x="192" y="792">01</text>
<text x="224" y="792">01</text>
<text x="256" y="792">01</text>
<text x="288" y="792">01</text>
<text x="320" y="792">01</text>
<text x="352" y="792">01</text>
<text x="384" y="792">01</text>
<text x="416" y="792">01</text>
<text x="448" y="792">01</text>
<text x="480" y="792">01</text>
<text x="512" y="792">01</text>
<text x="544" y="792">01</text>
<text x="576" y="792">01</text>
<text x="608" y="792">01</text>
<text x="640" y="792">01</text>
<text x="672" y="792">01</text>
<text x="704" y="792">01</text>
<text x="736" y="792">01</text>
<text x="768" y="792">01</text>
<text x="800" y="792">01</text>
<text x="832" y="792">01</text>
<text x="864" y="792">01</text>
<text x="896" y="792">01</text>
<text x="928" y="792">01</text>
<text x="960" y="792">01</text>
<text x="992" y="792">01</text>
<text x="1024" y="792">01</text>
<text x="1056" y="792">01</text>
<text x="1088" y="792">01</text>
<text x="1120" y="792">01</text>
<text x="1152" y="792">01</text>
<text x="1184" y="792">01</text>
<text x="1216" y="792">01</text>
<text x="1248" y="792">01</text>
<text x="1280" y="792">01</text>
<text x="1312" y="792">01</text>
<text x="1344" y="792">01</text>
<text x="1376" y="792">01</text>
<text x="1408" y="792">01</text>
<text x="1440" y="792">01</text>
<text x="1472" y="792">01</text>
<text x="1504" y="792">01</text>
</g></svg>